#Comment line ignore any data following # character 
#Hierarchical Translation and Rotation (.htr) file 
[Header]	
#Header keywords are followed by a single value 
FileType HTR		#Single word string
DataType HTRS		#Translation followed by rotation and scale data
FileVersion 1		#integer
NumSegments 84		#integer
NumFrames 2		#integer
DataFrameRate 30		#integer, data frame rate in this file
EulerRotationOrder ZYX
CalibrationUnits mm
RotationUnits Degrees
GlobalAxisofGravity Y
BoneLengthAxis Y
ScaleFactor 1.00
[SegmentNames&Hierarchy]
#CHILD	PARENT
MASTER GLOBAL
root MASTER
chest root
L_mid_tent01 root
R_mid_tent01 root
spine01 root
Bip01_Neck chest
L_humerus chest
R_humerus chest
weapon_bone chest
Bip01_Head Bip01_Neck
eye_left_bone Bip01_Head
eye_right_bone Bip01_Head
L_forearm L_humerus
L_front_hand L_forearm
L_weapon_bone L_forearm
L_front_hand01_01 L_front_hand
L_front_hand02_01 L_front_hand
L_front_hand03_01 L_front_hand
L_front_hand01_02 L_front_hand01_01
L_front_hand02_02 L_front_hand02_01
L_front_hand03_02 L_front_hand03_01
R_forearm R_humerus
R_front_hand R_forearm
R_weapon_bone R_forearm
R_front_hand01_01 R_front_hand
R_front_hand02_01 R_front_hand
R_front_hand03_01 R_front_hand
R_front_hand01_02 R_front_hand01_01
R_front_hand02_02 R_front_hand02_01
R_front_hand03_02 R_front_hand03_01
null_rope01_connect L_mid_tent01
Rope1_Seg01 null_rope01_connect
Rope1_Seg02 Rope1_Seg01
Rope1_Seg03 Rope1_Seg02
Rope1_Seg04 Rope1_Seg03
Rope1_Seg05 Rope1_Seg04
Rope1_Seg06 Rope1_Seg05
Rope1_Seg07 Rope1_Seg06
Rope1_Seg09 Rope1_Seg07
L_mid_hand01 Rope1_Seg09
L_mid_hand02 Rope1_Seg09
L_mid_hand03 Rope1_Seg09
null_rope02_connect R_mid_tent01
Rope2_Seg01 null_rope02_connect
Rope2_Seg02 Rope2_Seg01
Rope2_Seg03 Rope2_Seg02
Rope2_Seg04 Rope2_Seg03
Rope2_Seg05 Rope2_Seg04
Rope2_Seg06 Rope2_Seg05
Rope2_Seg07 Rope2_Seg06
Rope2_Seg09 Rope2_Seg07
R_mid_hand01 Rope2_Seg09
R_mid_hand02 Rope2_Seg09
R_mid_hand03 Rope2_Seg09
spine02 spine01
spine03 spine02
pelvis spine03
null_rope03_connect pelvis
null_rope04_connect pelvis
Rope3_Seg01 null_rope03_connect
Rope3_Seg02 Rope3_Seg01
Rope3_Seg03 Rope3_Seg02
Rope3_Seg04 Rope3_Seg03
Rope3_Seg05 Rope3_Seg04
Rope3_Seg06 Rope3_Seg05
Rope3_Seg07 Rope3_Seg06
Rope3_Seg08 Rope3_Seg07
Rope3_Seg09 Rope3_Seg08
R_rear_hand01 Rope3_Seg09
R_rear_hand02 Rope3_Seg09
R_rear_hand03 Rope3_Seg09
Rope4_Seg01 null_rope04_connect
Rope4_Seg02 Rope4_Seg01
Rope4_Seg03 Rope4_Seg02
Rope4_Seg04 Rope4_Seg03
Rope4_Seg05 Rope4_Seg04
Rope4_Seg06 Rope4_Seg05
Rope4_Seg07 Rope4_Seg06
Rope4_Seg08 Rope4_Seg07
Rope4_Seg09 Rope4_Seg08
L_rear_hand01 Rope4_Seg09
L_rear_hand02 Rope4_Seg09
L_rear_hand03 Rope4_Seg09
[BasePosition]
#SegmentName Tx, Ty, Tz, Rx, Ry, Rz, BoneLength
MASTER 0.000000 0.000000 0.000000 -90.000000 0.000000 0.000000 10.000000 
root 0.000000 0.000000 0.000000 0.000000 0.000000 0.000000 10.000000 
chest 0.000000 0.000000 0.000000 0.000000 0.000000 0.000000 10.000000 
L_mid_tent01 0.000000 0.000000 0.000000 0.000000 0.000000 0.000000 10.000000 
R_mid_tent01 0.000000 0.000000 0.000000 0.000000 0.000000 0.000000 10.000000 
spine01 0.000000 0.000000 0.000000 0.000000 0.000000 0.000000 10.000000 
Bip01_Neck 0.000000 0.000000 0.000000 0.000000 0.000000 0.000000 10.000000 
L_humerus 0.000000 0.000000 0.000000 0.000000 0.000000 0.000000 10.000000 
R_humerus 0.000000 0.000000 0.000000 0.000000 0.000000 0.000000 10.000000 
weapon_bone 0.000000 0.000000 0.000000 0.000000 0.000000 0.000000 10.000000 
Bip01_Head 0.000000 0.000000 0.000000 0.000000 0.000000 0.000000 10.000000 
eye_left_bone 0.000000 0.000000 0.000000 0.000000 0.000000 0.000000 10.000000 
eye_right_bone 0.000000 0.000000 0.000000 0.000000 0.000000 0.000000 10.000000 
L_forearm 0.000000 0.000000 0.000000 0.000000 0.000000 0.000000 10.000000 
L_front_hand 0.000000 0.000000 0.000000 0.000000 0.000000 0.000000 10.000000 
L_weapon_bone 0.000000 0.000000 0.000000 0.000000 0.000000 0.000000 10.000000 
L_front_hand01_01 0.000000 0.000000 0.000000 0.000000 0.000000 0.000000 10.000000 
L_front_hand02_01 0.000000 0.000000 0.000000 0.000000 0.000000 0.000000 10.000000 
L_front_hand03_01 0.000000 0.000000 0.000000 0.000000 0.000000 0.000000 10.000000 
L_front_hand01_02 0.000000 0.000000 0.000000 0.000000 0.000000 0.000000 10.000000 
L_front_hand02_02 0.000000 0.000000 0.000000 0.000000 0.000000 0.000000 10.000000 
L_front_hand03_02 0.000000 0.000000 0.000000 0.000000 0.000000 0.000000 10.000000 
R_forearm 0.000000 0.000000 0.000000 0.000000 0.000000 0.000000 10.000000 
R_front_hand 0.000000 0.000000 0.000000 0.000000 0.000000 0.000000 10.000000 
R_weapon_bone 0.000000 0.000000 0.000000 0.000000 0.000000 0.000000 10.000000 
R_front_hand01_01 0.000000 0.000000 0.000000 0.000000 0.000000 0.000000 10.000000 
R_front_hand02_01 0.000000 0.000000 0.000000 0.000000 0.000000 0.000000 10.000000 
R_front_hand03_01 0.000000 0.000000 0.000000 0.000000 0.000000 0.000000 10.000000 
R_front_hand01_02 0.000000 0.000000 0.000000 0.000000 0.000000 0.000000 10.000000 
R_front_hand02_02 0.000000 0.000000 0.000000 0.000000 0.000000 0.000000 10.000000 
R_front_hand03_02 0.000000 0.000000 0.000000 0.000000 0.000000 0.000000 10.000000 
null_rope01_connect 0.000000 0.000000 0.000000 0.000000 0.000000 0.000000 10.000000 
Rope1_Seg01 0.000000 0.000000 0.000000 0.000000 0.000000 0.000000 10.000000 
Rope1_Seg02 0.000000 0.000000 0.000000 0.000000 0.000000 0.000000 10.000000 
Rope1_Seg03 0.000000 0.000000 0.000000 0.000000 0.000000 0.000000 10.000000 
Rope1_Seg04 0.000000 0.000000 0.000000 0.000000 0.000000 0.000000 10.000000 
Rope1_Seg05 0.000000 0.000000 0.000000 0.000000 0.000000 0.000000 10.000000 
Rope1_Seg06 0.000000 0.000000 0.000000 0.000000 0.000000 0.000000 10.000000 
Rope1_Seg07 0.000000 0.000000 0.000000 0.000000 0.000000 0.000000 10.000000 
Rope1_Seg09 0.000000 0.000000 0.000000 0.000000 0.000000 0.000000 10.000000 
L_mid_hand01 0.000000 0.000000 0.000000 0.000000 0.000000 0.000000 10.000000 
L_mid_hand02 0.000000 0.000000 0.000000 0.000000 0.000000 0.000000 10.000000 
L_mid_hand03 0.000000 0.000000 0.000000 0.000000 0.000000 0.000000 10.000000 
null_rope02_connect 0.000000 0.000000 0.000000 0.000000 0.000000 0.000000 10.000000 
Rope2_Seg01 0.000000 0.000000 0.000000 0.000000 0.000000 0.000000 10.000000 
Rope2_Seg02 0.000000 0.000000 0.000000 0.000000 0.000000 0.000000 10.000000 
Rope2_Seg03 0.000000 0.000000 0.000000 0.000000 0.000000 0.000000 10.000000 
Rope2_Seg04 0.000000 0.000000 0.000000 0.000000 0.000000 0.000000 10.000000 
Rope2_Seg05 0.000000 0.000000 0.000000 0.000000 0.000000 0.000000 10.000000 
Rope2_Seg06 0.000000 0.000000 0.000000 0.000000 0.000000 0.000000 10.000000 
Rope2_Seg07 0.000000 0.000000 0.000000 0.000000 0.000000 0.000000 10.000000 
Rope2_Seg09 0.000000 0.000000 0.000000 0.000000 0.000000 0.000000 10.000000 
R_mid_hand01 0.000000 0.000000 0.000000 0.000000 0.000000 0.000000 10.000000 
R_mid_hand02 0.000000 0.000000 0.000000 0.000000 0.000000 0.000000 10.000000 
R_mid_hand03 0.000000 0.000000 0.000000 0.000000 0.000000 0.000000 10.000000 
spine02 0.000000 0.000000 0.000000 0.000000 0.000000 0.000000 10.000000 
spine03 0.000000 0.000000 0.000000 0.000000 0.000000 0.000000 10.000000 
pelvis 0.000000 0.000000 0.000000 0.000000 0.000000 0.000000 10.000000 
null_rope03_connect 0.000000 0.000000 0.000000 0.000000 0.000000 0.000000 10.000000 
null_rope04_connect 0.000000 0.000000 0.000000 0.000000 0.000000 0.000000 10.000000 
Rope3_Seg01 0.000000 0.000000 0.000000 0.000000 0.000000 0.000000 10.000000 
Rope3_Seg02 0.000000 0.000000 0.000000 0.000000 0.000000 0.000000 10.000000 
Rope3_Seg03 0.000000 0.000000 0.000000 0.000000 0.000000 0.000000 10.000000 
Rope3_Seg04 0.000000 0.000000 0.000000 0.000000 0.000000 0.000000 10.000000 
Rope3_Seg05 0.000000 0.000000 0.000000 0.000000 0.000000 0.000000 10.000000 
Rope3_Seg06 0.000000 0.000000 0.000000 0.000000 0.000000 0.000000 10.000000 
Rope3_Seg07 0.000000 0.000000 0.000000 0.000000 0.000000 0.000000 10.000000 
Rope3_Seg08 0.000000 0.000000 0.000000 0.000000 0.000000 0.000000 10.000000 
Rope3_Seg09 0.000000 0.000000 0.000000 0.000000 0.000000 0.000000 10.000000 
R_rear_hand01 0.000000 0.000000 0.000000 0.000000 0.000000 0.000000 10.000000 
R_rear_hand02 0.000000 0.000000 0.000000 0.000000 0.000000 0.000000 10.000000 
R_rear_hand03 0.000000 0.000000 0.000000 0.000000 0.000000 0.000000 10.000000 
Rope4_Seg01 0.000000 0.000000 0.000000 0.000000 0.000000 0.000000 10.000000 
Rope4_Seg02 0.000000 0.000000 0.000000 0.000000 0.000000 0.000000 10.000000 
Rope4_Seg03 0.000000 0.000000 0.000000 0.000000 0.000000 0.000000 10.000000 
Rope4_Seg04 0.000000 0.000000 0.000000 0.000000 0.000000 0.000000 10.000000 
Rope4_Seg05 0.000000 0.000000 0.000000 0.000000 0.000000 0.000000 10.000000 
Rope4_Seg06 0.000000 0.000000 0.000000 0.000000 0.000000 0.000000 10.000000 
Rope4_Seg07 0.000000 0.000000 0.000000 0.000000 0.000000 0.000000 10.000000 
Rope4_Seg08 0.000000 0.000000 0.000000 0.000000 0.000000 0.000000 10.000000 
Rope4_Seg09 0.000000 0.000000 0.000000 0.000000 0.000000 0.000000 10.000000 
L_rear_hand01 0.000000 0.000000 0.000000 0.000000 0.000000 0.000000 10.000000 
L_rear_hand02 0.000000 0.000000 0.000000 0.000000 0.000000 0.000000 10.000000 
L_rear_hand03 0.000000 0.000000 0.000000 0.000000 0.000000 0.000000 10.000000 
#Beginning of Data. Separated by tabs
#Fr	Tx	Ty	Tz	Rx	Ry	Rz	SF
[MASTER]
20 0.000000 0.000000 0.000000 0.001660 0.001660 0.001660 0.000000
21 0.000000 0.000000 0.000000 0.001660 0.001660 0.001660 0.000000
[root]
20 -169.652557 460.686188 1584.877930 -105.254593 -22.559805 -32.200645 1659.172119
21 -167.744537 457.403076 1594.476074 -104.992004 -23.925346 -32.283840 1667.246216
[chest]
20 -84.512650 -34.090519 0.000000 0.917588 0.472397 -177.420853 91.129311
21 -84.512650 -34.090519 0.000000 -0.928447 1.000902 -177.165512 91.129311
[L_mid_tent01]
20 27.299099 22.179163 -249.918884 -25.766012 51.833881 15.555194 252.381851
21 27.299099 22.179157 -249.918900 -23.708055 50.185108 19.893641 252.381866
[R_mid_tent01]
20 23.228794 24.509907 226.238495 156.315247 -28.100899 91.240639 228.744751
21 23.228794 24.509907 226.238495 166.101364 -18.246548 77.742256 228.744751
[spine01]
20 -0.361383 -0.195265 0.000000 -0.053299 -0.023030 22.445019 0.410763
21 -0.361383 -0.195265 0.000000 -0.046828 -0.020129 22.397125 0.410763
[Bip01_Neck]
20 165.484543 71.581718 0.000119 175.896118 1.177290 24.871183 180.302734
21 165.484543 71.581718 0.000119 175.896118 1.177290 24.871183 180.302734
[L_humerus]
20 -13.983130 -135.272980 -120.471481 -5.053818 66.348816 84.994370 181.680161
21 -13.983130 -135.272980 -120.471481 -5.103215 66.674881 84.945808 181.680161
[R_humerus]
20 -13.983309 -135.273102 125.287651 77.197586 -40.361855 11.813342 184.909012
21 -13.983309 -135.273102 125.287651 78.441132 -47.544144 10.155165 184.909012
[weapon_bone]
20 235.964890 -300.705902 0.000000 0.000000 -89.951546 -128.212341 382.234833
21 235.964890 -300.705902 0.000000 0.000000 -89.951546 -128.212341 382.234833
[Bip01_Head]
20 235.015701 204.112701 -10.589390 -46.800961 9.476991 -58.974346 311.458710
21 234.488586 206.016998 -10.670471 -46.670269 10.810086 -57.688244 312.316772
[eye_left_bone]
20 1.404952 120.042496 -57.472961 0.000000 -90.000000 -99.840431 133.098892
21 1.244506 120.075829 -57.517918 0.000000 -90.000000 -99.840431 133.146774
[eye_right_bone]
20 1.410064 120.040054 71.627571 0.000000 -89.965736 80.156380 139.793106
21 1.249592 120.073418 71.582619 0.000000 -89.965736 80.156380 139.797195
[L_forearm]
20 322.776093 0.000000 -0.000119 0.000417 -0.002310 -110.464638 322.776093
21 322.776093 0.000000 -0.000119 0.000414 -0.002310 -110.332031 322.776093
[L_front_hand]
20 241.149185 -0.042021 -3.300071 -178.667953 -1.835447 -27.422342 241.171753
21 241.149185 -0.042021 -3.300071 -178.667953 -1.835447 -27.422350 241.171753
[L_weapon_bone]
20 156.183838 0.000000 0.000000 0.000014 0.000007 0.000001 156.183838
21 156.183838 0.000000 0.000000 0.000014 0.000007 0.000001 156.183838
[L_front_hand01_01]
20 86.095154 20.947098 -0.655860 -0.366594 -0.477154 75.385574 88.609184
21 86.095154 20.947098 -0.655860 -0.366594 -0.477154 75.385574 88.609184
[L_front_hand02_01]
20 86.935165 -11.437475 24.513514 154.403519 -59.888931 -61.371990 91.046425
21 86.935165 -11.437475 24.513514 154.403519 -59.888931 -61.371990 91.046425
[L_front_hand03_01]
20 86.637497 -14.123976 -20.424902 -153.913849 58.118130 -62.702866 90.126129
21 86.637497 -14.123976 -20.424902 -153.913849 58.118122 -62.702866 90.126129
[L_front_hand01_02]
20 71.020905 -0.000179 0.000030 0.000334 -0.002323 -106.379684 71.020905
21 71.020905 -0.000179 0.000030 0.000334 -0.002323 -106.379684 71.020905
[L_front_hand02_02]
20 71.020927 -0.000119 0.000060 0.000334 -0.002323 -106.379684 71.020927
21 71.020927 -0.000119 0.000060 0.000334 -0.002323 -106.379684 71.020927
[L_front_hand03_02]
20 71.020905 -0.000060 0.000060 0.000334 -0.002323 -106.379684 71.020905
21 71.020905 -0.000060 0.000060 0.000334 -0.002323 -106.379684 71.020905
[R_forearm]
20 322.776428 -0.000060 0.000030 -0.024579 -0.209982 6.206587 322.776428
21 322.776428 -0.000060 0.000030 -0.001384 -0.211026 -1.032197 322.776428
[R_front_hand]
20 238.847015 -0.006795 2.210259 75.960007 8.921104 -15.862157 238.857239
21 238.847015 -0.006795 2.210259 71.540878 10.578566 -18.966702 238.857239
[R_weapon_bone]
20 155.664093 0.002503 -0.000030 0.003487 0.001180 -90.988930 155.664078
21 155.664093 0.002503 -0.000030 0.003487 0.001180 -90.988930 155.664078
[R_front_hand01_01]
20 87.624611 14.231146 22.918642 -116.960205 3.496175 -1.323883 91.683487
21 87.624611 14.231146 22.918642 -154.633499 -59.950619 61.746044 91.683487
[R_front_hand02_01]
20 89.356956 14.367283 -19.491137 118.419624 -4.256595 0.610096 92.579636
21 89.356956 14.367283 -19.491137 154.602661 58.302849 63.744389 92.579636
[R_front_hand03_01]
20 87.286232 -22.307278 -0.143439 -0.387967 -0.231466 4.231439 90.091743
21 87.286232 -22.307278 -0.143439 0.162155 -0.423168 -75.767921 90.091743
[R_front_hand01_02]
20 71.020905 0.000060 0.000119 0.001777 0.001534 8.377881 71.020905
21 71.020905 0.000060 0.000119 0.002323 -0.000334 106.381714 71.020905
[R_front_hand02_02]
20 71.020844 -0.000030 -0.000119 0.001777 0.001534 8.377881 71.020836
21 71.020844 -0.000030 -0.000119 0.002323 -0.000334 106.381714 71.020836
[R_front_hand03_02]
20 71.020905 0.000000 0.000030 0.001777 0.001534 8.377881 71.020905
21 71.020905 0.000000 0.000030 0.002323 -0.000334 106.381714 71.020905
[null_rope01_connect]
20 328.732483 0.000000 -0.000238 -166.624573 -61.747875 -87.278099 328.732483
21 328.732483 0.000000 -0.000238 -171.028503 -61.517662 -84.840462 328.732483
[Rope1_Seg01]
20 0.000034 -0.000049 0.000097 9.169376 -10.501678 -90.580666 0.000114
21 0.000038 -0.000048 0.000102 11.407743 -7.870627 -94.578026 0.000119
[Rope1_Seg02]
20 139.999863 -0.000179 0.000000 8.076409 -2.701726 -7.807343 139.999863
21 139.999863 -0.000179 0.000000 8.172753 -0.350251 -8.489952 139.999863
[Rope1_Seg03]
20 139.999924 0.000060 -0.000060 38.262398 -14.391776 -26.327118 139.999924
21 139.999924 0.000060 -0.000060 43.329308 -5.202677 -25.183920 139.999924
[Rope1_Seg04]
20 139.999924 -0.000060 -0.000119 56.810059 -53.069530 -42.654186 139.999924
21 139.999924 -0.000060 -0.000119 63.764297 -41.596336 -35.755241 139.999924
[Rope1_Seg05]
20 139.999832 0.000119 -0.000060 0.049357 -49.149414 -6.969615 139.999832
21 139.999832 0.000119 -0.000060 6.605110 -45.580006 1.033459 139.999832
[Rope1_Seg06]
20 139.999954 0.000119 -0.000060 -3.849376 -11.678597 -1.634093 139.999954
21 139.999954 0.000119 -0.000060 -3.260857 -19.504824 1.752139 139.999954
[Rope1_Seg07]
20 139.999985 0.000060 0.000000 -1.838230 -4.370286 -0.814223 139.999985
21 139.999985 0.000060 0.000000 -1.746953 -6.363026 0.623912 139.999985
[Rope1_Seg09]
20 121.602913 0.000119 -0.000089 -89.793175 -1.359789 0.847147 121.602913
21 121.602913 0.000119 -0.000089 -89.793175 -1.359789 0.847147 121.602913
[L_mid_hand01]
20 103.859421 1.038730 8.195221 114.520287 -53.310486 -20.623234 104.187431
21 103.859421 1.038730 8.195221 114.520287 -53.310486 -20.623234 104.187431
[L_mid_hand02]
20 105.572853 -4.139662 -10.864139 -155.067673 38.166626 -52.448818 106.211075
21 105.572853 -4.139662 -10.864139 -155.067673 38.166626 -52.448818 106.211075
[L_mid_hand03]
20 104.641464 17.579376 -3.913581 -10.970130 15.317461 57.626949 106.179977
21 104.641464 17.579376 -3.913581 -10.970130 15.317461 57.626949 106.179977
[null_rope02_connect]
20 328.732849 0.000179 -0.000119 -92.602951 5.834364 65.027077 328.732849
21 328.732849 0.000179 -0.000119 -82.691383 16.180889 56.920490 328.732849
[Rope2_Seg01]
20 0.000095 0.000153 0.000048 -21.154253 -6.787296 -15.806591 0.000186
21 0.000095 0.000153 0.000051 -20.290760 -14.150346 -10.612133 0.000187
[Rope2_Seg02]
20 139.999741 -0.000060 -0.000119 -7.948610 2.596203 5.476685 139.999756
21 139.999741 -0.000060 -0.000119 -7.220674 3.075469 7.000421 139.999756
[Rope2_Seg03]
20 140.000107 0.000030 0.000000 -19.434372 5.075304 16.521172 140.000107
21 140.000107 0.000030 0.000000 -14.889246 5.080938 17.607576 140.000107
[Rope2_Seg04]
20 139.999802 0.000000 -0.000060 -27.974588 -2.753039 68.983681 139.999802
21 139.999802 0.000000 -0.000060 -19.694620 -0.385525 49.948227 139.999802
[Rope2_Seg05]
20 139.999985 -0.000060 0.000119 1.266595 -14.853589 28.783602 139.999985
21 139.999985 -0.000060 0.000119 -1.812944 -9.306544 29.387817 139.999985
[Rope2_Seg06]
20 139.999893 -0.000030 -0.000119 4.840568 -4.649444 11.572093 139.999893
21 139.999893 -0.000030 -0.000119 3.933427 -1.910567 16.544615 139.999893
[Rope2_Seg07]
20 139.999893 0.000060 -0.000060 8.828968 -4.127304 13.620328 139.999893
21 139.999893 0.000060 -0.000060 7.062306 -1.073161 17.842413 139.999893
[Rope2_Seg09]
20 121.338966 0.000089 -0.000060 136.879395 0.546403 -1.506368 121.338966
21 121.338966 0.000089 -0.000060 136.879395 0.546403 -1.506368 121.338966
[R_mid_hand01]
20 104.680779 11.144459 -10.335981 -25.489689 41.487061 56.986717 105.778534
21 104.680779 11.144459 -10.335981 -27.802685 40.146809 53.454399 105.778534
[R_mid_hand02]
20 104.070427 2.443552 8.231699 61.107300 -59.107700 25.876715 104.424065
21 104.070427 2.443552 8.231699 63.327015 -56.459332 23.257946 104.424065
[R_mid_hand03]
20 106.028137 -11.221827 -5.996406 -174.261520 14.759502 -65.764908 106.788818
21 106.028137 -11.221827 -5.996406 -173.486588 14.440212 -62.692635 106.788818
[spine02]
20 129.756927 0.001550 0.000119 -0.254289 -14.054245 -4.313314 129.756927
21 129.756927 0.001550 0.000119 -0.184164 -13.521109 -4.778936 129.756927
[spine03]
20 78.614044 0.081538 -4.899011 1.980490 3.788567 17.741226 78.766579
21 78.614044 0.081533 -4.899011 1.969413 3.794756 17.579517 78.766579
[pelvis]
20 169.435242 0.051022 0.000000 -0.061959 -0.179717 15.039279 169.435257
21 169.435242 0.051022 0.000000 -0.061770 -0.179783 14.918580 169.435257
[null_rope03_connect]
20 -1.257226 -2.466202 137.391083 106.036911 -26.867693 -37.554966 137.418976
21 -1.257226 -2.466202 137.391083 105.976318 -27.727144 -35.382935 137.418976
[null_rope04_connect]
20 -1.259640 -2.480268 -137.844437 106.036911 -26.867693 -37.554966 137.872513
21 -1.259640 -2.480268 -137.844437 105.976318 -27.727144 -35.382935 137.872513
[Rope3_Seg01]
20 0.000000 0.000000 0.000000 59.231812 -58.959633 63.863613 0.000000
21 0.000000 0.000000 0.000000 84.534447 -69.435249 45.370110 0.000000
[Rope3_Seg02]
20 139.999924 -0.000119 0.000060 -7.956419 10.303063 -5.920197 139.999924
21 139.999924 -0.000119 0.000060 -5.679732 6.350768 -5.388775 139.999924
[Rope3_Seg03]
20 139.999924 -0.000119 0.000119 -10.300008 16.023203 -6.713687 139.999924
21 139.999924 -0.000119 0.000119 -9.400583 10.873585 -7.663129 139.999924
[Rope3_Seg04]
20 139.999924 0.000119 0.000000 -10.236150 18.786058 -8.055222 139.999924
21 139.999924 0.000119 0.000000 -14.126229 17.634642 -10.724530 139.999924
[Rope3_Seg05]
20 139.999924 -0.000238 0.000060 -4.324104 15.876025 -1.326162 139.999924
21 139.999924 -0.000238 0.000060 -11.560502 19.149803 -8.495914 139.999924
[Rope3_Seg06]
20 139.999893 -0.000119 -0.000060 0.766786 15.895656 8.370547 139.999893
21 139.999893 -0.000119 -0.000060 -3.025331 18.624060 3.712691 139.999893
[Rope3_Seg07]
20 139.999771 0.000060 -0.000119 3.615647 15.869620 11.488698 139.999771
21 139.999771 0.000060 -0.000119 4.006934 23.610403 14.389479 139.999771
[Rope3_Seg08]
20 139.999985 -0.000060 0.000000 3.189594 8.755083 4.226295 139.999985
21 139.999985 -0.000060 0.000000 4.959610 14.898001 7.174110 139.999985
[Rope3_Seg09]
20 90.185997 -0.000179 -0.000060 -24.489500 -1.359427 -0.848001 90.185997
21 90.185997 -0.000179 -0.000060 36.937958 -1.357603 -0.848002 90.185997
[R_rear_hand01]
20 103.366196 -6.073594 -10.757982 -156.049316 6.070419 -2.795869 104.101845
21 103.366196 -6.073594 -10.757982 -156.049316 6.070419 -2.795869 104.101845
[R_rear_hand02]
20 100.509819 12.039542 -7.992327 -38.708439 1.958052 5.461187 101.543350
21 100.509819 12.039542 -7.992327 -38.708424 1.958050 5.461185 101.543350
[R_rear_hand03]
20 101.539970 5.215704 5.435467 84.307625 -2.361032 4.099037 101.819031
21 101.539970 5.215704 5.435467 84.307625 -2.361032 4.099037 101.819031
[Rope4_Seg01]
20 -0.000013 -0.000028 -0.000153 -57.042614 -5.544699 0.425143 0.000156
21 -0.000013 -0.000025 -0.000153 -57.082790 -5.726510 0.548619 0.000155
[Rope4_Seg02]
20 139.999985 0.000060 0.000119 -4.223563 -5.472393 -0.088685 139.999985
21 139.999985 0.000060 0.000119 -12.887118 -6.029899 4.711171 139.999985
[Rope4_Seg03]
20 139.999924 0.000000 -0.000238 -5.375617 -16.592659 -2.566568 139.999924
21 139.999924 0.000000 -0.000238 -19.781467 -18.114332 8.722076 139.999924
[Rope4_Seg04]
20 139.999985 0.000000 0.000119 25.095743 -66.751541 -40.265152 139.999985
21 139.999985 0.000000 0.000119 -11.477136 -55.436214 4.050572 139.999985
[Rope4_Seg05]
20 139.999802 -0.000060 -0.000119 20.524155 -35.399921 33.314598 139.999802
21 139.999802 -0.000060 -0.000119 3.954308 -27.505806 7.278413 139.999802
[Rope4_Seg06]
20 139.999924 0.000000 0.000060 7.505832 -4.340820 9.892913 139.999924
21 139.999924 0.000000 0.000060 6.504024 -10.918942 8.904749 139.999924
[Rope4_Seg07]
20 139.999802 0.000000 0.000000 3.216090 -1.544510 4.279001 139.999802
21 139.999802 0.000000 0.000000 4.563166 -6.729317 4.489478 139.999802
[Rope4_Seg08]
20 139.999924 0.000000 0.000119 -0.024101 -0.611293 2.049444 139.999924
21 139.999924 0.000000 0.000119 1.295086 -3.343577 2.655888 139.999924
[Rope4_Seg09]
20 90.185791 0.000060 0.000060 -135.617828 2.228885 0.850567 90.185791
21 90.185791 0.000060 0.000060 -135.617828 2.228885 0.850567 90.185791
[L_rear_hand01]
20 101.696655 -8.392275 -7.654577 -19.915020 -33.950905 119.950104 102.329041
21 101.696655 -8.392275 -7.654577 -19.915020 -33.950905 119.950104 102.329041
[L_rear_hand02]
20 102.726799 -1.568258 5.773216 77.862221 61.878510 165.399200 102.900848
21 102.726799 -1.568258 5.773216 77.862221 61.878510 165.399200 102.900848
[L_rear_hand03]
20 104.552910 9.721220 -10.420293 -173.099182 -23.740307 -117.327896 105.519653
21 104.552910 9.721220 -10.420293 -173.099182 -23.740307 -117.327896 105.519653
